<?xml version="1.0" encoding="UTF-8"?><svg id="a" xmlns="http://www.w3.org/2000/svg" viewBox="0 0 48 48"><defs><style>.c{fill:none;}</style></defs><path id="b" class="c" d="M3879.61,1235.16l564.08-3071.76H1160.31v-1086.39c0-1623.29,636.82-2247.61,2285.08-2247.61,511.97,0,924.03,12.46,1161.3,37.43v-2784.55c-449.53-124.89-1548.39-249.77-2185.21-249.77-3358.97,0-4907.36,1585.86-4907.36,5007.27v1323.62h-2072.82V1235.16h2072.82v6684.33c777.75,192.92,1590.97,296.01,2428.35,296.01,412.3,0,818.56-25.41,1217.83-73.62V1235.16h2719.3Z"/><path d="M24,0h0C10.8,0,0,10.8,0,24H0C0,37.2,10.8,48,24,48h0c13.2,0,24-10.8,24-24h0C48,10.8,37.2,0,24,0ZM31.87,15.21c-.41-.04-1.11-.06-1.99-.06-2.83,0-3.92,1.07-3.92,3.86v1.87h5.64l-.97,5.27h-4.67v11.86h-6.26v-11.86h-3.56v-5.27h3.56v-2.27c0-5.87,2.66-8.6,8.42-8.6,1.09,0,2.98.21,3.75.43v4.78Z"/></svg>