<svg width="24" height="24" viewBox="0 0 24 24" fill="none" xmlns="http://www.w3.org/2000/svg">
<g clip-path="url(#clip0_48_356)">
<path d="M12 0C5.4 0 0 5.4 0 12C0 18.6 5.4 24 12 24C18.6 24 24 18.6 24 12C24 5.4 18.6 0 12 0ZM15.935 7.605C15.73 7.585 15.38 7.575 14.94 7.575C13.525 7.575 12.98 8.11 12.98 9.505V10.44H15.8L15.315 13.075H12.98V19.005H9.85V13.075H8.07V10.44H9.85V9.305C9.85 6.37 11.18 5.005 14.06 5.005C14.605 5.005 15.55 5.11 15.935 5.22V7.61V7.605Z" fill="white"/>
</g>
<defs>
<clipPath id="clip0_48_356">
<rect width="24" height="24" fill="white"/>
</clipPath>
</defs>
</svg>
