<?xml version="1.0" encoding="UTF-8"?>
<svg id="a" xmlns="http://www.w3.org/2000/svg" version="1.1" viewBox="0 0 48 48">
  <!-- Generator: Adobe Illustrator 29.5.0, SVG Export Plug-In . SVG Version: 2.1.0 Build 137)  -->
  <defs>
    <style>
      .st0 {
        fill: #fff;
      }

      .st1 {
        fill: none;
      }
    </style>
  </defs>
  <path id="b" class="st1" d="M3879.6,1235.2l564.1-3071.8H1160.3v-1086.4c0-1623.3,636.8-2247.6,2285.1-2247.6s924,12.5,1161.3,37.4v-2784.5c-449.5-124.9-1548.4-249.8-2185.2-249.8-3359,0-4907.4,1585.9-4907.4,5007.3v1323.6h-2072.8V1235.2h2072.8v6684.3c777.8,192.9,1591,296,2428.4,296s818.6-25.4,1217.8-73.6V1235.2h2719.3Z"/>
  <path class="st0" d="M24,0h0C10.8,0,0,10.8,0,24h0c0,13.2,10.8,24,24,24h0c13.2,0,24-10.8,24-24h0C48,10.8,37.2,0,24,0ZM31.9,15.2c-.4,0-1.1,0-2,0-2.8,0-3.9,1.1-3.9,3.9v1.9h5.6l-1,5.3h-4.7v11.9h-6.3v-11.9h-3.6v-5.3h3.6v-2.3c0-5.9,2.7-8.6,8.4-8.6s3,.2,3.8.4v4.8h0Z"/>
</svg>