<?xml version="1.0" encoding="UTF-8"?>
<svg id="a" xmlns="http://www.w3.org/2000/svg" version="1.1" viewBox="0 0 48 48">
  <!-- Generator: Adobe Illustrator 29.5.0, SVG Export Plug-In . SVG Version: 2.1.0 Build 137)  -->
  <defs>
    <style>
      .st0 {
        fill: #fff;
      }

      .st1 {
        fill: none;
      }
    </style>
  </defs>
  <path class="st0" d="M24,0h0C10.8,0,0,10.8,0,24h0c0,13.2,10.8,24,24,24h0c13.2,0,24-10.8,24-24h0C48,10.8,37.2,0,24,0ZM37.9,29.8c0,1.5-.3,2.5-.7,3.4-.4.9-.8,1.7-1.6,2.5s-1.6,1.3-2.5,1.6c-.9.3-1.9.6-3.4.7s-2,0-5.8,0-4.3,0-5.8,0c-1.5,0-2.5-.3-3.4-.7-.9-.4-1.7-.8-2.5-1.6-.8-.8-1.3-1.6-1.6-2.5-.4-.9-.6-1.9-.6-3.4s0-2,0-5.8,0-4.3,0-5.8c0-1.5.3-2.5.6-3.4.4-.9.8-1.7,1.6-2.5s1.6-1.3,2.5-1.6c.9-.4,1.9-.6,3.4-.6s2,0,5.8,0h0c3.8,0,4.3,0,5.8,0,1.5,0,2.5.3,3.4.6.9.4,1.7.8,2.5,1.6.8.8,1.3,1.6,1.6,2.5.3.9.6,1.9.7,3.4s0,2,0,5.8,0,4.3,0,5.8h0Z"/>
  <path class="st0" d="M34.9,15.8c-.2-.6-.6-1.1-1-1.6-.5-.5-1-.8-1.6-1.1-.5-.2-1.2-.4-2.6-.5-1.5,0-1.9,0-5.7,0h-1.3c-2.6,0-3.1,0-4.4,0-1.4,0-2.1.3-2.6.5-.6.2-1.1.6-1.6,1.1s-.8,1-1.1,1.6c-.2.5-.4,1.2-.5,2.6,0,1.5,0,1.9,0,5.6s0,4.2,0,5.6c0,1.4.3,2.1.5,2.6.2.7.6,1.1,1.1,1.6s1,.8,1.6,1c.5.2,1.2.4,2.6.5,1.5,0,1.9,0,5.7,0s4.2,0,5.7,0c1.4,0,2.1-.3,2.6-.5.7-.2,1.1-.6,1.6-1,.5-.5.8-1,1-1.6.2-.5.4-1.2.5-2.6,0-1.5,0-1.9,0-5.6s0-4.2,0-5.6c0-1.4-.3-2.1-.5-2.6ZM24,31.2c-4,0-7.2-3.2-7.2-7.2s3.2-7.2,7.2-7.2h0c4,0,7.2,3.2,7.2,7.2s-3.2,7.2-7.2,7.2ZM31.5,18.2c-.9,0-1.7-.8-1.7-1.7s.8-1.7,1.7-1.7h0c.9,0,1.7.8,1.7,1.7s-.8,1.7-1.7,1.7Z"/>
  <circle class="st0" cx="24" cy="24" r="4.7"/>
  <path id="b" class="st1" d="M3822.7,1235.2l564.1-3071.8H1103.4v-1086.4c0-1623.3,636.8-2247.6,2285.1-2247.6s924,12.5,1161.3,37.4v-2784.5c-449.5-124.9-1548.4-249.8-2185.2-249.8-3359,0-4907.4,1585.9-4907.4,5007.3v1323.6h-2072.8V1235.2h2072.8v6684.3c777.8,192.9,1591,296,2428.4,296s818.6-25.4,1217.8-73.6V1235.2h2719.3Z"/>
</svg>