<?xml version="1.0" encoding="UTF-8"?><svg id="a" xmlns="http://www.w3.org/2000/svg" viewBox="0 0 48 48"><defs><style>.c{fill:none;}</style></defs><path d="M24,0h0C10.8,0,0,10.8,0,24H0C0,37.2,10.8,48,24,48h0c13.2,0,24-10.8,24-24h0C48,10.8,37.2,0,24,0ZM37.92,29.77c-.07,1.49-.31,2.51-.65,3.4-.36.92-.84,1.7-1.62,2.48-.78.78-1.56,1.26-2.48,1.61-.89.35-1.91.58-3.4.65-1.49.07-1.97.08-5.77.08s-4.28-.02-5.77-.08c-1.49-.07-2.51-.3-3.4-.65-.92-.36-1.7-.84-2.48-1.61-.78-.78-1.26-1.56-1.61-2.48-.35-.89-.58-1.91-.65-3.4-.07-1.49-.08-1.97-.08-5.77s.02-4.28.08-5.77c.07-1.49.3-2.51.65-3.4.36-.92.84-1.7,1.62-2.48.78-.78,1.56-1.26,2.48-1.61.89-.35,1.91-.58,3.4-.65,1.49-.07,1.97-.08,5.77-.08h0,0,0c3.8,0,4.28.02,5.77.08,1.49.07,2.51.3,3.4.65.92.36,1.7.84,2.48,1.61.78.78,1.26,1.56,1.62,2.48.34.89.58,1.91.65,3.4.07,1.49.08,1.97.08,5.77s-.02,4.28-.08,5.77Z"/><path d="M34.91,15.75c-.25-.65-.56-1.12-1.05-1.61-.49-.49-.96-.79-1.61-1.05-.49-.19-1.23-.42-2.6-.48-1.48-.07-1.92-.08-5.66-.08-.47,0-.88,0-1.26,0h0c-2.61,0-3.11.02-4.4.08-1.36.06-2.11.29-2.6.48-.65.25-1.12.56-1.61,1.05s-.79.96-1.05,1.61c-.19.49-.42,1.23-.48,2.6-.07,1.47-.08,1.92-.08,5.65s.01,4.18.08,5.65c.06,1.36.29,2.1.48,2.6.25.65.56,1.12,1.05,1.61s.96.79,1.61,1.05c.49.19,1.23.42,2.6.48,1.48.07,1.92.08,5.66.08s4.18-.01,5.66-.08c1.37-.06,2.11-.29,2.6-.48.65-.25,1.12-.56,1.61-1.05.49-.49.79-.95,1.05-1.61.19-.49.42-1.23.48-2.6.07-1.47.08-1.92.08-5.65s-.01-4.18-.08-5.65c-.06-1.36-.29-2.1-.48-2.6ZM24,31.18c-3.97,0-7.19-3.22-7.19-7.18s3.22-7.18,7.19-7.18h0,0,0c3.97,0,7.19,3.22,7.19,7.18s-3.22,7.18-7.19,7.18ZM31.47,18.21c-.93,0-1.68-.75-1.68-1.68s.75-1.68,1.68-1.68h0c.93,0,1.68.75,1.68,1.68s-.75,1.68-1.68,1.68Z"/><circle cx="24" cy="24" r="4.66" transform="translate(-.05 47.95) rotate(-89.87)"/><path id="b" class="c" d="M3822.72,1235.16l564.08-3071.76H1103.42v-1086.39c0-1623.29,636.82-2247.61,2285.08-2247.61,511.97,0,924.03,12.46,1161.3,37.43v-2784.55c-449.53-124.89-1548.39-249.77-2185.21-249.77-3358.97,0-4907.36,1585.86-4907.36,5007.27v1323.62h-2072.82V1235.16h2072.82v6684.33c777.75,192.92,1590.97,296.01,2428.35,296.01,412.3,0,818.56-25.41,1217.83-73.62V1235.16h2719.3Z"/></svg>