<svg width="24" height="24" viewBox="0 0 24 24" fill="none" xmlns="http://www.w3.org/2000/svg">
<g clip-path="url(#clip0_48_351)">
<path d="M12 0C5.4 0 0 5.4 0 12C0 18.6 5.4 24 12 24C18.6 24 24 18.6 24 12C24 5.4 18.6 0 12 0ZM18.96 14.885C18.925 15.63 18.805 16.14 18.635 16.585C18.455 17.045 18.215 17.435 17.825 17.825C17.435 18.215 17.045 18.455 16.585 18.63C16.14 18.805 15.63 18.92 14.885 18.955C14.14 18.99 13.9 18.995 12 18.995C10.1 18.995 9.86 18.985 9.115 18.955C8.37 18.92 7.86 18.805 7.415 18.63C6.955 18.45 6.565 18.21 6.175 17.825C5.785 17.435 5.545 17.045 5.37 16.585C5.195 16.14 5.08 15.63 5.045 14.885C5.01 14.14 5.005 13.9 5.005 12C5.005 10.1 5.015 9.86 5.045 9.115C5.08 8.37 5.195 7.86 5.37 7.415C5.55 6.955 5.79 6.565 6.18 6.175C6.57 5.785 6.96 5.545 7.42 5.37C7.865 5.195 8.375 5.08 9.12 5.045C9.865 5.01 10.105 5.005 12.005 5.005C13.905 5.005 14.145 5.015 14.89 5.045C15.635 5.08 16.145 5.195 16.59 5.37C17.05 5.55 17.44 5.79 17.83 6.175C18.22 6.565 18.46 6.955 18.64 7.415C18.81 7.86 18.93 8.37 18.965 9.115C19 9.86 19.005 10.1 19.005 12C19.005 13.9 18.995 14.14 18.965 14.885H18.96Z" fill="white"/>
<path d="M17.455 7.87501C17.33 7.55001 17.175 7.31501 16.93 7.07001C16.685 6.82501 16.45 6.67501 16.125 6.54501C15.88 6.45001 15.51 6.33501 14.825 6.30501C14.085 6.27001 13.865 6.26501 11.995 6.26501C11.76 6.26501 11.555 6.26501 11.365 6.26501C10.06 6.26501 9.81 6.27501 9.165 6.30501C8.485 6.33501 8.11 6.45001 7.865 6.54501C7.54 6.67001 7.305 6.82501 7.06 7.07001C6.815 7.31501 6.665 7.55001 6.535 7.87501C6.44 8.12001 6.325 8.49002 6.295 9.17501C6.26 9.91002 6.255 10.135 6.255 12C6.255 13.865 6.26 14.09 6.295 14.825C6.325 15.505 6.44 15.875 6.535 16.125C6.66 16.45 6.815 16.685 7.06 16.93C7.305 17.175 7.54 17.325 7.865 17.455C8.11 17.55 8.48 17.665 9.165 17.695C9.905 17.73 10.125 17.735 11.995 17.735C13.865 17.735 14.085 17.73 14.825 17.695C15.51 17.665 15.88 17.55 16.125 17.455C16.45 17.33 16.685 17.175 16.93 16.93C17.175 16.685 17.325 16.455 17.455 16.125C17.55 15.88 17.665 15.51 17.695 14.825C17.73 14.09 17.735 13.865 17.735 12C17.735 10.135 17.73 9.91002 17.695 9.17501C17.665 8.49501 17.55 8.12501 17.455 7.87501ZM12 15.59C10.015 15.59 8.405 13.98 8.405 12C8.405 10.02 10.015 8.41001 12 8.41001C13.985 8.41001 15.595 10.02 15.595 12C15.595 13.98 13.985 15.59 12 15.59ZM15.735 9.10501C15.27 9.10501 14.895 8.73002 14.895 8.26502C14.895 7.80002 15.27 7.42501 15.735 7.42501C16.2 7.42501 16.575 7.80002 16.575 8.26502C16.575 8.73002 16.2 9.10501 15.735 9.10501Z" fill="white"/>
<path d="M14.3322 12.0075C14.3351 10.7207 13.2943 9.67518 12.0075 9.67226C10.7207 9.66934 9.67512 10.7102 9.6722 11.997C9.66928 13.2838 10.7101 14.3293 11.9969 14.3323C13.2837 14.3352 14.3293 13.2944 14.3322 12.0075Z" fill="white"/>
</g>
<defs>
<clipPath id="clip0_48_351">
<rect width="24" height="24" fill="white"/>
</clipPath>
</defs>
</svg>
