<svg width="24" height="24" viewBox="0 0 24 24" fill="none" xmlns="http://www.w3.org/2000/svg">
<g clip-path="url(#clip0_48_359)">
<path d="M10.6 14.1L14.235 12L10.6 9.89999V14.1Z" fill="white"/>
<path d="M12 0C5.4 0 0 5.4 0 12C0 18.6 5.4 24 12 24C18.6 24 24 18.6 24 12C24 5.4 18.6 0 12 0ZM18.705 15.37C18.545 15.975 18.07 16.445 17.465 16.61C16.375 16.905 11.995 16.905 11.995 16.905C11.995 16.905 7.615 16.905 6.525 16.61C5.92 16.45 5.45 15.975 5.285 15.37C4.99 14.28 4.99 12 4.99 12C4.99 12 4.99 9.72 5.285 8.63C5.445 8.025 5.92 7.555 6.525 7.39C7.615 7.095 11.995 7.095 11.995 7.095C11.995 7.095 16.375 7.095 17.465 7.39C18.07 7.55 18.54 8.025 18.705 8.63C18.995 9.72 19 12 19 12C19 12 19 14.28 18.705 15.37Z" fill="white"/>
</g>
<defs>
<clipPath id="clip0_48_359">
<rect width="24" height="24" fill="white"/>
</clipPath>
</defs>
</svg>
