<svg width="94" height="24" viewBox="0 0 94 24" fill="none" xmlns="http://www.w3.org/2000/svg">
<g clip-path="url(#clip0_48_758)">
<path d="M0.828093 22.8262C0.828093 23.1262 0.917617 23.2987 1.26452 23.2987C1.49206 23.2987 1.80166 23.2687 2.07397 23.2162L2.17095 23.8912C1.86135 23.9624 1.57785 23.9999 1.26452 23.9999C0.473728 23.9999 0.123093 23.5724 0.123093 22.9499V21.5212C0.123093 20.8987 0.477458 20.4712 1.26452 20.4712C1.57785 20.4712 1.86135 20.5087 2.17095 20.5799L2.07397 21.2549C1.80166 21.2024 1.49206 21.1724 1.26452 21.1724C0.917617 21.1724 0.828093 21.3487 0.828093 21.6449V22.8262ZM4.92754 22.9499C4.92754 23.4674 4.59928 23.9999 3.71524 23.9999C2.83119 23.9999 2.50293 23.4712 2.50293 22.9499V21.5212C2.50293 21.0037 2.83119 20.4712 3.71524 20.4712C4.59928 20.4712 4.92754 20.9999 4.92754 21.5212V22.9499ZM4.22254 21.5887C4.22254 21.3224 4.06587 21.1574 3.71524 21.1574C3.3646 21.1574 3.20793 21.3224 3.20793 21.5887V22.8824C3.20793 23.1487 3.3646 23.3137 3.71524 23.3137C4.06587 23.3137 4.22254 23.1487 4.22254 22.8824V21.5887ZM6.14357 21.6974V23.9474H5.47214V20.5237H6.33754L7.36706 22.8824V20.5237H8.03849V23.9474H7.16936L6.14357 21.6974ZM9.56412 23.9999C9.2023 23.9999 8.82182 23.9137 8.55325 23.7787L8.67262 23.1824C8.95984 23.2799 9.25079 23.3474 9.57532 23.3474C9.93714 23.3474 10.008 23.2687 10.008 22.9837C10.008 22.6762 9.99309 22.6387 9.48206 22.5149C8.72484 22.3349 8.61293 22.1699 8.61293 21.4312C8.61293 20.7487 8.83301 20.4749 9.69468 20.4749C9.96698 20.4749 10.2952 20.5049 10.6459 20.5874L10.575 21.2362C10.2169 21.1687 9.98563 21.1387 9.70587 21.1387C9.39254 21.1387 9.32166 21.1987 9.32166 21.4537C9.32166 21.7837 9.33659 21.7874 9.82897 21.9149C10.6757 22.1362 10.7167 22.3162 10.7167 22.9874C10.7167 23.6587 10.5153 23.9999 9.56785 23.9999H9.56412ZM12.5035 21.2099V23.9512H11.7985V21.2099H10.9555V20.5274H13.3428V21.2099H12.4998H12.5035ZM14.8274 22.8862H14.4133V23.9512H13.7083V20.5274H15.0102C15.7711 20.5274 16.0546 20.8574 16.0546 21.4987V21.9187C16.0546 22.3462 15.9129 22.6349 15.5995 22.7774L16.3567 23.9512H15.5212L14.8311 22.8862H14.8274ZM15.3496 21.5699C15.3496 21.3112 15.2601 21.2099 14.9729 21.2099H14.4133V22.2187H14.9729C15.275 22.2187 15.3496 22.1024 15.3496 21.8437V21.5699ZM19.0686 20.5237V22.9499C19.0686 23.4674 18.7739 23.9999 17.8898 23.9999C17.0058 23.9999 16.7111 23.4712 16.7111 22.9499V20.5237H17.4161V22.8787C17.4161 23.1562 17.5392 23.3174 17.8898 23.3174C18.2405 23.3174 18.3636 23.1599 18.3636 22.8787V20.5237H19.0686ZM21.053 22.9612V23.9474H20.348V22.9612L19.3744 20.5237H20.113L20.7024 22.1137L21.2917 20.5237H22.0303L21.0567 22.9612H21.053ZM22.3325 23.9474V20.5237H24.302V21.2062H23.0375V21.8324H24.205V22.5149H23.0375V23.2612H24.302V23.9437H22.3325V23.9474ZM25.5143 21.6974V23.9474H24.8429V20.5237H25.7083L26.7378 22.8824V20.5237H27.4092V23.9474H26.5401L25.5143 21.6974ZM29.2333 23.9474H28.021V20.5237H29.2333C30.0054 20.5237 30.2926 20.9512 30.2926 21.4124V23.0587C30.2926 23.5162 30.0054 23.9474 29.2333 23.9474ZM29.5876 21.6262C29.5876 21.3599 29.5018 21.2099 29.1512 21.2099H28.7297V23.2649H29.1512C29.5056 23.2649 29.5876 23.1149 29.5876 22.8487V21.6262ZM33.1872 22.9499C33.1872 23.4674 32.859 23.9999 31.9749 23.9999C31.0909 23.9999 30.7626 23.4712 30.7626 22.9499V21.5212C30.7626 21.0037 31.0909 20.4712 31.9749 20.4712C32.859 20.4712 33.1872 20.9999 33.1872 21.5212V22.9499ZM32.4822 21.5887C32.4822 21.3224 32.3256 21.1574 31.9749 21.1574C31.6243 21.1574 31.4676 21.3224 31.4676 21.5887V22.8824C31.4676 23.1487 31.6243 23.3137 31.9749 23.3137C32.3256 23.3137 32.4822 23.1487 32.4822 22.8824V21.5887ZM35.3507 22.8262C35.3507 23.1262 35.4402 23.2987 35.7871 23.2987C36.0147 23.2987 36.3243 23.2687 36.5966 23.2162L36.6936 23.8912C36.384 23.9624 36.1005 23.9999 35.7871 23.9999C34.9963 23.9999 34.6457 23.5724 34.6457 22.9499V21.5212C34.6457 20.8987 35.0001 20.4712 35.7871 20.4712C36.1005 20.4712 36.384 20.5087 36.6936 20.5799L36.5966 21.2549C36.3243 21.2024 36.0147 21.1724 35.7871 21.1724C35.4402 21.1724 35.3507 21.3487 35.3507 21.6449V22.8262ZM39.4502 22.9499C39.4502 23.4674 39.1219 23.9999 38.2379 23.9999C37.3538 23.9999 37.0256 23.4712 37.0256 22.9499V21.5212C37.0256 21.0037 37.3538 20.4712 38.2379 20.4712C39.1219 20.4712 39.4502 20.9999 39.4502 21.5212V22.9499ZM38.7452 21.5887C38.7452 21.3224 38.5885 21.1574 38.2379 21.1574C37.8872 21.1574 37.7306 21.3224 37.7306 21.5887V22.8824C37.7306 23.1487 37.8872 23.3137 38.2379 23.3137C38.5885 23.3137 38.7452 23.1487 38.7452 22.8824V21.5887ZM40.6662 21.6974V23.9474H39.9948V20.5237H40.8602L41.8897 22.8824V20.5237H42.5611V23.9474H41.692L40.6662 21.6974ZM43.1691 23.9474V20.5237H45.1573V21.2062H43.8741V21.9374H45.0603V22.6199H43.8741V23.9474H43.1691ZM45.631 23.9474V20.5237H46.336V23.9474H45.631ZM49.5663 23.9474H48.8315L48.6637 23.2799H47.6155L47.4476 23.9474H46.7128L47.6677 20.5237H48.6077L49.5663 23.9474ZM47.7759 22.6387H48.4958L48.1377 21.2062L47.7759 22.6387ZM50.5921 21.6974V23.9474H49.9207V20.5237H50.7861L51.8156 22.8824V20.5237H52.4871V23.9474H51.6179L50.5921 21.6974ZM53.8299 23.3174H55.2175V23.9512H53.0279V23.3249L54.4044 21.1612H53.0876V20.5274H55.1952V21.1612L53.8299 23.3212V23.3174ZM58.4255 23.9474H57.6906L57.5228 23.2799H56.4746L56.3067 23.9474H55.5719L56.5268 20.5237H57.4668L58.4255 23.9474ZM56.6313 22.6387H57.3512L56.9931 21.2062L56.6313 22.6387Z" fill="#D8282F"/>
<path d="M80.135 0L93.8769 23.9475H66.3894L80.135 0ZM91.4971 14.235C91.2844 14.3512 91.1203 14.5125 91.001 14.7262C90.8816 14.94 90.8219 15.1613 90.8219 15.3937C90.8219 15.6262 90.8816 15.8438 90.9972 16.0575C91.1129 16.2675 91.277 16.4325 91.4896 16.5487C91.6985 16.665 91.9186 16.725 92.1498 16.725C92.3811 16.725 92.5975 16.665 92.8101 16.5487C93.019 16.4325 93.1831 16.2675 93.2987 16.0575C93.4144 15.8438 93.474 15.6262 93.474 15.3937C93.474 15.1613 93.4144 14.94 93.295 14.7262C93.1756 14.5125 93.0115 14.3475 92.7989 14.235C92.5863 14.1187 92.3699 14.0625 92.1461 14.0625C91.9223 14.0625 91.706 14.1187 91.4933 14.235H91.4971ZM92.6907 14.43C92.866 14.5275 93.0041 14.6625 93.1048 14.8425C93.2018 15.0225 93.254 15.2063 93.254 15.3975C93.254 15.5888 93.2055 15.7725 93.1085 15.9487C93.0115 16.125 92.8735 16.26 92.6982 16.3612C92.5229 16.4587 92.3401 16.5075 92.1498 16.5075C91.9596 16.5075 91.7768 16.4587 91.6015 16.3612C91.4262 16.2638 91.2882 16.125 91.1912 15.9487C91.0942 15.7725 91.0457 15.5888 91.0457 15.3975C91.0457 15.2063 91.0942 15.0188 91.1949 14.8425C91.2956 14.6625 91.4337 14.5275 91.609 14.43C91.7843 14.3325 91.9671 14.2875 92.1536 14.2875C92.3401 14.2875 92.5191 14.3363 92.6944 14.43H92.6907ZM91.7992 16.1325V15.525H91.9335C92.0156 15.525 92.0752 15.54 92.1163 15.5737C92.176 15.6187 92.258 15.7275 92.3587 15.9075L92.4856 16.1325H92.7653L92.59 15.8512C92.5079 15.7163 92.4371 15.6225 92.3811 15.5662C92.3513 15.5362 92.3102 15.51 92.2617 15.4913C92.3848 15.48 92.4818 15.4387 92.5564 15.36C92.631 15.2812 92.6683 15.1912 92.6683 15.0863C92.6683 15.0112 92.646 14.9437 92.6012 14.8762C92.5564 14.8125 92.4967 14.7638 92.4221 14.7375C92.3475 14.7112 92.2282 14.6962 92.0603 14.6962H91.5717V16.1287H91.8029L91.7992 16.1325ZM91.7992 14.895H92.0603C92.1722 14.895 92.2506 14.9025 92.2916 14.9213C92.3326 14.9363 92.3662 14.9625 92.3886 14.9963C92.411 15.03 92.4259 15.0675 92.4259 15.1088C92.4259 15.1763 92.3998 15.2287 92.3513 15.2662C92.3028 15.3075 92.2133 15.3263 92.079 15.3263H91.7992V14.895Z" fill="#D8282F"/>
<path d="M78.0871 16.6276C78.2177 16.6276 78.3072 16.7326 78.2811 16.8638L77.4978 21.1838C77.4754 21.3151 77.3486 21.4201 77.218 21.4201H76.2855C76.1549 21.4201 76.0691 21.3151 76.0915 21.1838L76.8748 16.8638C76.8972 16.7326 77.024 16.6276 77.1546 16.6276H78.0871ZM78.6467 14.8463L78.7921 14.0288C78.8145 13.8976 78.7287 13.7926 78.5982 13.7926H77.6619C77.5314 13.7926 77.4083 13.8976 77.3821 14.0288L77.2329 14.8463C77.2106 14.9776 77.2964 15.0826 77.4269 15.0826H78.3632C78.4937 15.0826 78.6168 14.9776 78.6429 14.8463M87.144 19.9013C87.1589 19.4626 86.771 19.3388 86.2152 19.3201C85.6594 19.3013 84.9693 19.4438 84.9693 19.8938C84.9693 20.2238 85.3498 20.5576 86.0473 20.5238C86.6367 20.4938 87.1328 20.2276 87.1477 19.9013H87.144ZM88.0094 21.4351C87.8341 21.3901 87.4834 21.2101 87.3156 21.2101C87.1253 21.2101 86.5397 21.5063 85.734 21.5063C84.8238 21.5063 84.6709 21.0713 84.4023 21.0788C84.2718 21.0826 83.5966 21.5138 83.0296 21.5063C82.0859 21.4913 81.6159 19.5001 80.6945 19.5001C80.4409 19.5001 80.3252 19.5863 80.2469 19.7888L79.9858 21.1838C79.9634 21.3151 79.8366 21.4201 79.706 21.4201H78.7698C78.6392 21.4201 78.5534 21.3151 78.5758 21.1838L80.8176 8.82385C80.84 8.6926 80.9668 8.5876 81.0974 8.5876H82.0337C82.1642 8.5876 82.25 8.6926 82.2276 8.82385C82.2276 8.82385 80.605 17.8463 80.5714 18.0001C80.4707 18.4726 81.8919 18.1801 82.4402 16.9163C82.5633 16.6576 82.7051 16.6313 82.8133 16.6313C82.9252 16.6313 83.4735 16.6313 83.619 16.6313C83.8241 16.6313 83.8055 16.9013 83.7794 17.0063C83.4996 18.1313 82.1754 18.8213 82.1829 18.9601C82.1903 19.1026 82.9848 19.9013 83.1378 20.1376C83.2907 20.3738 83.8838 20.2426 83.8838 19.8938C83.8838 17.8726 86.9351 18.4763 87.1626 18.4838C87.4163 18.4951 87.4014 17.9026 87.3902 17.7976C87.379 17.6926 87.1589 17.5763 86.5546 17.5763H84.8611C84.7156 17.5763 84.6112 17.4788 84.6298 17.3626L84.7417 16.8413C84.7604 16.7251 84.891 16.6313 85.0364 16.6313C85.0364 16.6313 87.4909 16.6013 87.7669 16.7101C88.5204 17.0101 88.5502 17.6213 88.5204 18.0826C88.4906 18.5476 88.1959 19.9913 88.1959 20.0776C88.1959 20.3251 88.5689 20.2651 88.7256 20.3138C88.8822 20.3626 88.8673 20.5313 88.8561 20.5988C88.8561 20.5988 88.8114 21.0338 88.7442 21.1951C88.6808 21.3563 88.4383 21.5513 88.0094 21.4351ZM71.3878 21.5213C71.4549 21.4876 71.4997 21.4463 71.537 21.4313C71.5668 21.4201 71.6265 21.4238 71.7011 21.4388H71.7123C72.3576 21.6263 74.7039 22.2563 75.2821 19.5113C75.2821 19.5113 76.8748 10.7363 76.8786 10.7176C76.8898 10.6163 77.0725 9.49885 78.6168 10.0238C79.1353 10.2001 79.1838 9.9376 79.195 9.8926L79.43 8.8651C79.4375 8.5726 79.2062 8.6401 78.7623 8.55385C78.4229 8.4901 78.3221 8.67385 78.2438 8.71135C78.1655 8.74885 77.8932 8.68135 77.4903 8.6626C77.2553 8.65135 75.8453 8.83135 75.5618 10.2151L74.0101 18.6451C73.9392 18.8963 73.9653 21.2813 71.2423 19.9351C70.7798 19.7063 70.6044 19.8263 70.5634 20.0663C70.5336 20.2351 70.4067 21.1013 70.3844 21.2776C70.3769 21.3488 70.4291 21.4651 70.5634 21.4838C70.7052 21.5063 70.9327 21.5401 71.0483 21.5588C71.2087 21.5813 71.3094 21.5626 71.3803 21.5251L71.3952 21.5176" fill="#F5B325"/>
</g>
<defs>
<clipPath id="clip0_48_758">
<rect width="94" height="24" fill="white"/>
</clipPath>
</defs>
</svg>
