<svg width="24" height="24" viewBox="0 0 24 24" fill="none" xmlns="http://www.w3.org/2000/svg">
<path d="M12 0L2.7825 15.9788H21.2175L12 0ZM6.3525 14.3063H6.345C6.2925 14.295 6.255 14.2913 6.23625 14.2987C6.21 14.3063 6.18375 14.3363 6.135 14.3588L6.1275 14.3663C6.07875 14.3925 6.01125 14.4037 5.9025 14.3888C5.8275 14.3775 5.67375 14.355 5.58 14.34C5.49 14.325 5.4525 14.25 5.46 14.2013C5.475 14.085 5.56125 13.5075 5.58 13.3912C5.60625 13.23 5.72625 13.1513 6.0375 13.3013C7.86375 14.1975 7.845 12.6075 7.89375 12.4387L8.9325 6.8175C9.12375 5.89125 10.0688 5.775 10.2263 5.7825C10.4963 5.79375 10.68 5.83875 10.7325 5.81625C10.785 5.79 10.8525 5.67 11.0813 5.71125C11.3813 5.7675 11.535 5.7225 11.5313 5.9175L11.3738 6.6C11.3663 6.63 11.3325 6.80625 10.9838 6.68625C9.94875 6.3375 9.82875 7.08 9.8175 7.15125C9.8175 7.16625 8.74875 13.0162 8.74875 13.0162C8.3625 14.8462 6.7875 14.4262 6.35625 14.3025L6.3525 14.3063ZM10.23 14.1337C10.215 14.22 10.1288 14.2913 10.0425 14.2913H9.41625C9.33 14.2913 9.27 14.22 9.285 14.1337L9.81 11.2537C9.825 11.1675 9.91125 11.0963 9.9975 11.0963H10.6238C10.71 11.0963 10.77 11.1675 10.755 11.2537L10.23 14.1337ZM10.815 10.0612H10.1888C10.1025 10.0612 10.0425 9.99 10.0575 9.90375L10.155 9.35625C10.17 9.27 10.2563 9.19875 10.3425 9.19875H10.9688C11.055 9.19875 11.115 9.27 11.1 9.35625L11.0025 9.90375C10.9875 9.99 10.9013 10.0612 10.815 10.0612ZM17.775 14.1412C17.7338 14.25 17.5688 14.3775 17.28 14.3025C17.1638 14.2725 16.9275 14.1525 16.815 14.1525C16.6875 14.1525 16.2937 14.3512 15.7537 14.3512C15.1462 14.3512 15.0413 14.0625 14.8613 14.0662C14.775 14.0662 14.3213 14.355 13.9388 14.3512C13.3088 14.34 12.99 13.0125 12.3713 13.0125C12.1988 13.0125 12.1238 13.0725 12.0713 13.2037L11.895 14.1337C11.88 14.22 11.7975 14.2913 11.7075 14.2913H11.0813C10.995 14.2913 10.935 14.22 10.95 14.1337L12.4538 5.8875C12.4688 5.80125 12.555 5.73 12.6413 5.73H13.2675C13.3538 5.73 13.4138 5.80125 13.3988 5.8875C13.3988 5.8875 12.3113 11.9062 12.2888 12.0075C12.2213 12.3225 13.1738 12.1275 13.5413 11.2838C13.6238 11.1112 13.7213 11.0925 13.7925 11.0925C13.8675 11.0925 14.235 11.0925 14.3325 11.0925C14.4713 11.0925 14.46 11.2725 14.4413 11.3438C14.2538 12.0938 13.365 12.555 13.3725 12.6488C13.3763 12.7425 13.9088 13.275 14.0138 13.4363C14.1188 13.5938 14.5125 13.5075 14.5125 13.2712C14.5125 11.9212 16.56 12.3263 16.71 12.33C16.8825 12.3375 16.8713 11.94 16.8638 11.8725C16.8563 11.805 16.71 11.7262 16.305 11.7262H15.1688C15.0713 11.7262 15 11.6625 15.015 11.5837L15.09 11.235C15.1013 11.1562 15.1913 11.0963 15.2888 11.0963C15.2888 11.0963 16.935 11.0775 17.1188 11.1488C17.625 11.3475 17.6438 11.7562 17.625 12.0637C17.6063 12.3712 17.4075 13.3388 17.4075 13.395C17.4075 13.56 17.6588 13.5225 17.7638 13.5525C17.8687 13.5825 17.8613 13.6988 17.8538 13.7438C17.8538 13.7438 17.8238 14.0363 17.7788 14.1412H17.775ZM16.7025 13.275C16.695 13.4963 16.3613 13.6725 15.9675 13.6912C15.5025 13.7137 15.2438 13.4887 15.2438 13.2712C15.2438 12.9712 15.705 12.8737 16.08 12.8888C16.455 12.9 16.7138 12.9825 16.7025 13.275ZM19.6163 11.0438C19.7588 11.1225 19.905 11.16 20.0588 11.16C20.2125 11.16 20.3588 11.1225 20.5013 11.0438C20.64 10.965 20.7525 10.8562 20.8312 10.7137C20.91 10.5712 20.9475 10.425 20.9475 10.2712C20.9475 10.1175 20.9063 9.9675 20.8275 9.825C20.7488 9.6825 20.6362 9.57375 20.4975 9.495C20.355 9.42 20.2088 9.37875 20.0588 9.37875C19.9088 9.37875 19.7625 9.41625 19.62 9.495C19.4775 9.57 19.3688 9.6825 19.2863 9.825C19.2075 9.9675 19.1663 10.1175 19.1663 10.2712C19.1663 10.425 19.2038 10.5712 19.2825 10.7137C19.3613 10.8562 19.47 10.965 19.6125 11.0438H19.6163ZM19.4175 9.9C19.485 9.78 19.575 9.69 19.695 9.62625C19.815 9.5625 19.935 9.52875 20.0588 9.52875C20.1825 9.52875 20.3025 9.5625 20.4225 9.62625C20.5425 9.69 20.6325 9.78 20.7 9.9C20.7675 10.02 20.8013 10.1438 20.8013 10.2712C20.8013 10.3987 20.7675 10.5225 20.7038 10.6388C20.64 10.755 20.5462 10.8488 20.43 10.9125C20.3138 10.98 20.19 11.01 20.0625 11.01C19.935 11.01 19.8113 10.9762 19.695 10.9125C19.5788 10.845 19.485 10.755 19.4213 10.6388C19.3575 10.5225 19.3238 10.3987 19.3238 10.2712C19.3238 10.1438 19.3575 10.02 19.425 9.9H19.4175ZM19.8225 10.3575H19.9125C19.965 10.3575 20.01 10.3687 20.0363 10.3912C20.0775 10.4212 20.13 10.4963 20.1975 10.6125L20.2838 10.7625H20.4713L20.355 10.575C20.2988 10.485 20.2538 10.425 20.2125 10.3837C20.1938 10.365 20.1638 10.3462 20.13 10.3312C20.2125 10.3237 20.28 10.2975 20.3288 10.245C20.3775 10.1925 20.4038 10.1325 20.4038 10.0612C20.4038 10.0125 20.3888 9.96375 20.3588 9.9225C20.3288 9.8775 20.2875 9.8475 20.2388 9.82875C20.19 9.81 20.1075 9.8025 19.995 9.8025H19.665V10.7587H19.8188V10.3538L19.8225 10.3575ZM19.8225 9.9375H19.9988C20.0738 9.9375 20.1263 9.94125 20.1525 9.9525C20.1788 9.96375 20.2013 9.97875 20.2163 10.0013C20.2313 10.0238 20.2388 10.05 20.2388 10.0763C20.2388 10.1213 20.2238 10.155 20.19 10.1812C20.1562 10.2075 20.0963 10.2225 20.0063 10.2225H19.8188V9.93375L19.8225 9.9375ZM3.195 20.79C3.195 20.94 3.24375 21.03 3.43875 21.03C3.5625 21.03 3.735 21.015 3.88875 20.9888L3.945 21.33C3.7725 21.3675 3.615 21.3862 3.43875 21.3862C3 21.3862 2.805 21.1688 2.805 20.8538V20.1262C2.805 19.8112 3 19.5938 3.43875 19.5938C3.615 19.5938 3.7725 19.6125 3.945 19.65L3.88875 19.9913C3.73875 19.965 3.56625 19.95 3.43875 19.95C3.24375 19.95 3.195 20.04 3.195 20.19V20.79ZM5.475 20.8538C5.475 21.1163 5.29125 21.3862 4.8 21.3862C4.30875 21.3862 4.125 21.1163 4.125 20.8538V20.1262C4.125 19.8637 4.30875 19.5938 4.8 19.5938C5.29125 19.5938 5.475 19.8637 5.475 20.1262V20.8538ZM5.08125 20.16C5.08125 20.025 4.995 19.9387 4.8 19.9387C4.605 19.9387 4.51875 20.0212 4.51875 20.16V20.82C4.51875 20.955 4.605 21.0413 4.8 21.0413C4.995 21.0413 5.08125 20.9587 5.08125 20.82V20.16ZM6.15 20.2125V21.3563H5.775V19.6163H6.255L6.82875 20.8162V19.6163H7.20375V21.3563H6.72L6.15 20.2125ZM8.05125 21.3862C7.84875 21.3862 7.63875 21.3412 7.48875 21.2738L7.5525 20.97C7.71375 21.0187 7.875 21.0525 8.055 21.0525C8.2575 21.0525 8.295 21.015 8.295 20.865C8.295 20.7075 8.2875 20.6887 8.0025 20.6287C7.5825 20.5387 7.51875 20.4525 7.51875 20.0775C7.51875 19.7288 7.6425 19.59 8.11875 19.59C8.26875 19.59 8.4525 19.605 8.6475 19.6462L8.61 19.9762C8.41125 19.9425 8.28375 19.9275 8.12625 19.9275C7.95 19.9275 7.9125 19.9575 7.9125 20.0887C7.9125 20.2575 7.92 20.2575 8.19375 20.325C8.6625 20.4375 8.68875 20.5275 8.68875 20.8725C8.68875 21.2175 8.57625 21.3862 8.05125 21.3862ZM9.68625 19.965V21.36H9.2925V19.965H8.82375V19.6163H10.1513V19.965H9.6825H9.68625ZM10.9763 20.8162H10.7475V21.3563H10.3538V19.6163H11.0775C11.5013 19.6163 11.6588 19.785 11.6588 20.1112V20.325C11.6588 20.5425 11.58 20.6887 11.4038 20.76L11.8238 21.3563H11.3588L10.9763 20.8162ZM11.2688 20.1488C11.2688 20.0175 11.22 19.965 11.0588 19.965H10.7475V20.4788H11.0588C11.2275 20.4788 11.2688 20.4187 11.2688 20.2875V20.1488ZM13.335 19.6163V20.85C13.335 21.1125 13.17 21.3825 12.6788 21.3825C12.1875 21.3825 12.0225 21.1125 12.0225 20.85V19.6163H12.4163V20.8125C12.4163 20.955 12.4838 21.0338 12.6788 21.0338C12.8738 21.0338 12.9413 20.9513 12.9413 20.8125V19.6163H13.335ZM14.4413 20.8575V21.36H14.0475V20.8575L13.5075 19.62H13.9163L14.2425 20.4263L14.5688 19.62H14.9775L14.4375 20.8575H14.4413ZM15.15 21.36V19.62H16.245V19.9688H15.54V20.2875H16.1888V20.6362H15.54V21.015H16.245V21.3638H15.15V21.36ZM16.92 20.2125V21.3563H16.545V19.6163H17.025L17.5988 20.8162V19.6163H17.9738V21.3563H17.49L16.92 20.2125ZM18.99 21.36H18.315V19.62H18.99C19.4175 19.62 19.5788 19.8375 19.5788 20.0737V20.91C19.5788 21.1425 19.4175 21.3638 18.99 21.3638V21.36ZM19.185 20.1788C19.185 20.0438 19.1362 19.9688 18.9412 19.9688H18.705V21.015H18.9412C19.1362 21.015 19.185 20.94 19.185 20.805V20.1825V20.1788ZM21.1875 20.8538C21.1875 21.1163 21.0037 21.3862 20.5125 21.3862C20.0213 21.3862 19.8375 21.1163 19.8375 20.8538V20.1262C19.8375 19.8637 20.0213 19.5938 20.5125 19.5938C21.0037 19.5938 21.1875 19.8637 21.1875 20.1262V20.8538ZM20.7975 20.16C20.7975 20.025 20.7113 19.9387 20.5163 19.9387C20.3213 19.9387 20.235 20.0212 20.235 20.16V20.82C20.235 20.955 20.3213 21.0413 20.5163 21.0413C20.7113 21.0413 20.7975 20.9587 20.7975 20.82V20.16ZM5.8275 23.4037C5.8275 23.5537 5.87625 23.6437 6.07125 23.6437C6.195 23.6437 6.3675 23.6287 6.52125 23.6025L6.5775 23.9437C6.405 23.9812 6.2475 24 6.07125 24C5.6325 24 5.4375 23.7825 5.4375 23.4675V22.74C5.4375 22.425 5.6325 22.2075 6.07125 22.2075C6.2475 22.2075 6.405 22.2262 6.5775 22.2638L6.52125 22.605C6.37125 22.5787 6.19875 22.5637 6.07125 22.5637C5.87625 22.5637 5.8275 22.6538 5.8275 22.8038V23.4037ZM8.1075 23.4675C8.1075 23.73 7.92375 24 7.4325 24C6.94125 24 6.7575 23.73 6.7575 23.4675V22.74C6.7575 22.4775 6.94125 22.2075 7.4325 22.2075C7.92375 22.2075 8.1075 22.4775 8.1075 22.74V23.4675ZM7.7175 22.7738C7.7175 22.6388 7.63125 22.5525 7.43625 22.5525C7.24125 22.5525 7.155 22.635 7.155 22.7738V23.4338C7.155 23.5688 7.24125 23.655 7.43625 23.655C7.63125 23.655 7.7175 23.5725 7.7175 23.4338V22.7738ZM8.7825 22.83V23.9738H8.4075V22.2337H8.8875L9.46125 23.4338V22.2337H9.83625V23.9738H9.3525L8.7825 22.83ZM10.1775 23.9738V22.2337H11.2838V22.5825H10.5713V22.9538H11.2313V23.3025H10.5713V23.9775H10.1775V23.9738ZM11.5425 23.9738V22.2337H11.9363V23.9738H11.5425ZM13.7325 23.9738H13.3238L13.23 23.6325H12.6488L12.555 23.9738H12.1463L12.6788 22.2337H13.2L13.7325 23.9738ZM12.735 23.3063H13.1363L12.9375 22.575L12.735 23.3063ZM14.3025 22.83V23.9738H13.9275V22.2337H14.4075L14.9813 23.4338V22.2337H15.3563V23.9738H14.8725L14.3025 22.83ZM16.1025 23.6512H16.875V23.9738H15.6563V23.655L16.4213 22.5525H15.69V22.23H16.86V22.5525L16.1025 23.6512ZM18.66 23.9738H18.2513L18.1575 23.6325H17.5763L17.4825 23.9738H17.0738L17.6063 22.2337H18.1275L18.66 23.9738ZM17.6625 23.3063H18.0638L17.865 22.575L17.6625 23.3063Z" fill="white"/>
</svg>
