<?xml version="1.0" encoding="UTF-8"?><svg id="a" xmlns="http://www.w3.org/2000/svg" viewBox="0 0 64 64"><defs><style>.b{fill:#fff;}</style></defs><path class="b" d="M32,0L7.42,42.61h49.16L32,0ZM16.94,38.15h-.02c-.14-.03-.24-.04-.29-.02-.07.02-.14.1-.27.16l-.02.02c-.13.07-.31.1-.6.06-.2-.03-.61-.09-.86-.13-.24-.04-.34-.24-.32-.37.04-.31.27-1.85.32-2.16.07-.43.39-.64,1.22-.24,4.87,2.39,4.82-1.85,4.95-2.3l2.77-14.99c.51-2.47,3.03-2.78,3.45-2.76.72.03,1.21.15,1.35.09.14-.07.32-.39.93-.28.8.15,1.21.03,1.2.55l-.42,1.82c-.02.08-.11.55-1.04.23-2.76-.93-3.08,1.05-3.11,1.24,0,.04-2.85,15.64-2.85,15.64-1.03,4.88-5.23,3.76-6.38,3.43ZM27.28,37.69c-.04.23-.27.42-.5.42h-1.67c-.23,0-.39-.19-.35-.42l1.4-7.68c.04-.23.27-.42.5-.42h1.67c.23,0,.39.19.35.42l-1.4,7.68ZM28.84,26.83h-1.67c-.23,0-.39-.19-.35-.42l.26-1.46c.04-.23.27-.42.5-.42h1.67c.23,0,.39.19.35.42l-.26,1.46c-.04.23-.27.42-.5.42ZM47.4,37.71c-.11.29-.55.63-1.32.43-.31-.08-.94-.4-1.24-.4-.34,0-1.39.53-2.83.53-1.62,0-1.9-.77-2.38-.76-.23,0-1.44.77-2.46.76-1.68-.03-2.53-3.57-4.18-3.57-.46,0-.66.16-.8.51h0s-.47,2.48-.47,2.48c-.04.23-.26.42-.5.42h-1.67c-.23,0-.39-.19-.35-.42l4.01-21.99c.04-.23.27-.42.5-.42h1.67c.23,0,.39.19.35.42,0,0-2.9,16.05-2.96,16.32-.18.84,2.36.32,3.34-1.93.22-.46.48-.51.67-.51.2,0,1.18,0,1.44,0,.37,0,.34.48.29.67-.5,2-2.87,3.23-2.85,3.48.01.25,1.43,1.67,1.71,2.1.28.42,1.33.19,1.33-.44,0-3.6,5.46-2.52,5.86-2.51.46.02.43-1.04.41-1.22-.02-.18-.41-.39-1.49-.39h-3.03c-.26,0-.45-.17-.41-.38l.2-.93c.03-.21.27-.37.53-.37,0,0,4.39-.05,4.88.14,1.35.53,1.4,1.62,1.35,2.44-.05.82-.58,3.4-.58,3.55,0,.44.67.34.95.42.28.08.26.39.24.51,0,0-.08.78-.2,1.06ZM44.54,35.4c-.02.59-.91,1.06-1.96,1.11-1.24.06-1.93-.54-1.93-1.12,0-.8,1.23-1.06,2.23-1.02,1,.03,1.69.25,1.66,1.03ZM52.31,29.45c.38.21.77.31,1.18.31s.8-.1,1.18-.31c.37-.21.67-.5.88-.88.21-.38.31-.77.31-1.18s-.11-.81-.32-1.19c-.21-.38-.51-.67-.88-.88-.38-.2-.77-.31-1.17-.31s-.79.1-1.17.31c-.38.2-.67.5-.89.88-.21.38-.32.78-.32,1.19s.1.8.31,1.18c.21.38.5.67.88.88ZM51.78,26.4c.18-.32.42-.56.74-.73.32-.17.64-.26.97-.26s.65.09.97.26c.32.17.56.41.74.73.18.32.27.65.27.99s-.09.67-.26.98c-.17.31-.42.56-.73.73-.31.18-.64.26-.98.26s-.67-.09-.98-.26c-.31-.18-.56-.42-.73-.73-.17-.31-.26-.64-.26-.98s.09-.67.27-.99ZM52.86,27.62h.24c.14,0,.26.03.33.09.11.08.25.28.43.59l.23.4h.5l-.31-.5c-.15-.24-.27-.4-.38-.51-.05-.05-.13-.1-.22-.14.22-.02.4-.09.53-.23.13-.14.2-.3.2-.49,0-.13-.04-.26-.12-.37-.08-.12-.19-.2-.32-.25-.13-.05-.35-.07-.65-.07h-.88v2.55h.41v-1.08ZM52.86,26.5h.47c.2,0,.34.01.41.04.07.03.13.07.17.13.04.06.06.13.06.2,0,.12-.04.21-.13.28-.09.07-.25.11-.49.11h-.5v-.77ZM8.52,55.44c0,.4.13.64.65.64.33,0,.79-.04,1.2-.11l.15.91c-.46.1-.88.15-1.35.15-1.17,0-1.69-.58-1.69-1.42v-1.94c0-.84.52-1.42,1.69-1.42.47,0,.89.05,1.35.15l-.15.91c-.4-.07-.86-.11-1.2-.11-.52,0-.65.24-.65.64v1.6ZM14.6,55.61c0,.7-.49,1.42-1.8,1.42s-1.8-.72-1.8-1.42v-1.94c0-.7.49-1.42,1.8-1.42s1.8.72,1.8,1.42v1.94ZM13.55,53.76c0-.36-.23-.59-.75-.59s-.75.22-.75.59v1.76c0,.36.23.59.75.59s.75-.22.75-.59v-1.76ZM16.4,53.9v3.05h-1v-4.64h1.28l1.53,3.2v-3.2h1v4.64h-1.29l-1.52-3.05ZM21.47,57.03c-.54,0-1.1-.12-1.5-.3l.17-.81c.43.13.86.22,1.34.22.54,0,.64-.1.64-.5,0-.42-.02-.47-.78-.63-1.12-.24-1.29-.47-1.29-1.47,0-.93.33-1.3,1.6-1.3.4,0,.89.04,1.41.15l-.1.88c-.53-.09-.87-.13-1.29-.13-.47,0-.57.08-.57.43,0,.45.02.45.75.63,1.25.3,1.32.54,1.32,1.46s-.3,1.37-1.7,1.37ZM25.83,53.24v3.72h-1.05v-3.72h-1.25v-.93h3.54v.93h-1.25ZM29.27,55.51h-.61v1.44h-1.05v-4.64h1.93c1.13,0,1.55.45,1.55,1.32v.57c0,.58-.21.97-.68,1.16l1.12,1.59h-1.24l-1.02-1.44ZM30.05,53.73c0-.35-.13-.49-.56-.49h-.83v1.37h.83c.45,0,.56-.16.56-.51v-.37ZM35.56,52.31v3.29c0,.7-.44,1.42-1.75,1.42s-1.75-.72-1.75-1.42v-3.29h1.05v3.19c0,.38.18.59.7.59s.7-.22.7-.59v-3.19h1.05ZM38.51,55.62v1.34h-1.05v-1.34l-1.44-3.3h1.09l.87,2.15.87-2.15h1.09l-1.44,3.3ZM40.4,56.96v-4.64h2.92v.93h-1.88v.85h1.73v.93h-1.73v1.01h1.88v.93h-2.92ZM45.12,53.9v3.05h-1v-4.64h1.28l1.53,3.2v-3.2h1v4.64h-1.29l-1.52-3.05ZM50.64,56.96h-1.8v-4.64h1.8c1.14,0,1.57.58,1.57,1.21v2.23c0,.62-.43,1.21-1.57,1.21ZM51.16,53.81c0-.36-.13-.56-.65-.56h-.63v2.79h.63c.52,0,.65-.2.65-.56v-1.66ZM56.5,55.61c0,.7-.49,1.42-1.8,1.42s-1.8-.72-1.8-1.42v-1.94c0-.7.49-1.42,1.8-1.42s1.8.72,1.8,1.42v1.94ZM55.46,53.76c0-.36-.23-.59-.75-.59s-.75.22-.75.59v1.76c0,.36.23.59.75.59s.75-.22.75-.59v-1.76ZM15.54,62.41c0,.4.13.64.65.64.33,0,.79-.04,1.2-.11l.15.91c-.46.1-.88.15-1.35.15-1.17,0-1.69-.58-1.69-1.42v-1.94c0-.84.52-1.42,1.69-1.42.47,0,.89.05,1.35.15l-.15.91c-.4-.07-.86-.11-1.2-.11-.52,0-.65.24-.65.64v1.6ZM21.62,62.58c0,.7-.49,1.42-1.8,1.42s-1.8-.72-1.8-1.42v-1.94c0-.7.49-1.42,1.8-1.42s1.8.72,1.8,1.42v1.94ZM20.58,60.73c0-.36-.23-.59-.75-.59s-.75.22-.75.59v1.76c0,.36.23.59.75.59s.75-.22.75-.59v-1.76ZM23.42,60.88v3.05h-1v-4.64h1.28l1.53,3.2v-3.2h1v4.64h-1.29l-1.52-3.05ZM27.14,63.93v-4.64h2.95v.93h-1.9v.99h1.76v.93h-1.76v1.8h-1.05ZM30.78,63.93v-4.64h1.05v4.64h-1.05ZM36.62,63.93h-1.09l-.25-.91h-1.55l-.25.91h-1.09l1.42-4.64h1.39l1.42,4.64ZM33.96,62.15h1.07l-.53-1.95-.54,1.95ZM38.14,60.88v3.05h-1v-4.64h1.28l1.53,3.2v-3.2h1v4.64h-1.29l-1.52-3.05ZM42.94,63.07h2.06v.86h-3.25v-.85l2.04-2.94h-1.95v-.86h3.12v.86l-2.02,2.93ZM49.76,63.93h-1.09l-.25-.91h-1.55l-.25.91h-1.09l1.42-4.64h1.39l1.42,4.64ZM47.1,62.15h1.07l-.53-1.95-.54,1.95Z"/></svg>