<?xml version="1.0" encoding="UTF-8"?><svg id="a" xmlns="http://www.w3.org/2000/svg" viewBox="0 0 192 64"><defs><style>.b{fill:#fff;}</style></defs><path class="b" d="M49.81,45.12c.45,1.79.69,3.54.69,5.25v.92c0,.33-.05.69-.14,1.07-.04.19-.19.34-.37.41-.69.23-1.51.38-2.45.47-.92.09-1.77.13-2.56.13h-.03c-3.19,0-5.84-.94-7.83-2.86-2.04-1.96-2.99-5.09-2.99-9.25V11.23c0-.27.19-.52.46-.56,1.49-.26,2.95-.39,4.39-.39s2.85.13,4.33.39c.27.04.46.29.46.56v28.06c0,1.29.07,2.33.2,3.08.13.75.34,1.3.58,1.64.24.36.52.58.9.72.4.14.96.23,1.65.23.3,0,.63-.02,1-.06.36-.05.71-.11,1.05-.18.29-.07.58.12.65.41ZM77.96,32.08v19.12c0,.25-.15.47-.38.55-1.44.47-3.17.92-5.2,1.35-2.07.43-4.38.65-6.96.65-2.09,0-4.02-.19-5.78-.59-1.77-.39-3.32-1.06-4.61-2-1.31-.94-2.32-2.17-3.03-3.66-.71-1.5-1.06-3.32-1.06-5.42s.43-3.94,1.33-5.44c.87-1.45,2.01-2.62,3.4-3.5,1.37-.86,2.89-1.48,4.56-1.85,1.65-.37,3.3-.56,4.96-.56,1.02,0,2.13.05,3.32.14v-.14c0-.96-.16-1.69-.42-2.21-.28-.56-.65-.97-1.13-1.28-.49-.31-1.11-.53-1.89-.66-.79-.12-1.69-.18-2.67-.18-2.11,0-4.37.43-6.79,1.3-.25.09-.54-.03-.66-.27-.58-1.13-1.02-2.2-1.31-3.22-.3-1.05-.45-2.27-.45-3.67,0-.24.15-.47.37-.55,1.81-.65,3.62-1.12,5.42-1.42,1.8-.3,3.48-.46,5.05-.46,4.28,0,7.71,1.09,10.2,3.32,2.52,2.27,3.74,5.87,3.73,10.63ZM68.51,37.8c-.34-.05-.7-.1-1.09-.13-.55-.07-1.03-.1-1.45-.1h-.01c-1.91,0-3.37.37-4.39,1.03-.98.65-1.45,1.59-1.47,3.11,0,1.03.21,1.74.55,2.2.39.52.84.89,1.38,1.13.57.25,1.18.4,1.83.47.7.06,1.29.09,1.8.09.58,0,1.15-.06,1.73-.16.41-.07.78-.13,1.12-.2v-7.43ZM109.36,18.9c-1.48-.26-2.95-.39-4.39-.39s-2.85.13-4.33.39c-.27.04-.46.29-.46.57v25.36c-.88.21-1.95.31-3.21.31-1.05,0-1.93-.13-2.68-.39-.71-.25-1.3-.65-1.78-1.23-.47-.57-.84-1.37-1.09-2.43-.25-1.05-.38-2.45-.37-4.16v-17.46c0-.29-.2-.53-.46-.57-1.48-.26-2.95-.39-4.39-.39s-2.91.13-4.39.39c-.27.04-.46.29-.46.57v17.71c0,3.57.43,6.47,1.32,8.7.88,2.2,2.07,3.91,3.61,5.09,1.5,1.16,3.25,1.91,5.23,2.27,1.93.35,3.94.52,6.03.52,2.34,0,4.58-.22,6.74-.68,2.13-.44,3.86-.9,5.19-1.39.22-.08.37-.3.37-.55v-31.66c0-.29-.19-.53-.46-.57ZM173.53,36.04c0,2.47-.31,4.78-.93,6.92-.63,2.15-1.59,4.04-2.9,5.65-1.31,1.62-2.96,2.89-4.92,3.79-1.98.91-4.28,1.36-6.88,1.36s-4.89-.44-6.86-1.36c-1.94-.9-3.57-2.16-4.86-3.79-1.28-1.61-2.24-3.5-2.88-5.64-.65-2.14-.97-4.46-.97-6.93s.32-4.81.97-6.99c.64-2.19,1.6-4.1,2.88-5.71,1.29-1.62,2.92-2.89,4.86-3.82,1.96-.93,4.25-1.39,6.86-1.39s4.9.46,6.89,1.39c1.96.93,3.61,2.19,4.92,3.82,1.3,1.62,2.27,3.53,2.89,5.71.62,2.18.93,4.52.93,6.99ZM163.71,36.04c0-3.25-.5-5.7-1.41-7.32-.9-1.57-2.27-2.34-4.4-2.35-2.09.01-3.44.78-4.34,2.35-.91,1.62-1.41,4.07-1.41,7.32s.5,5.69,1.41,7.32c.91,1.59,2.25,2.34,4.34,2.36,2.14-.02,3.5-.78,4.4-2.36.91-1.63,1.41-4.07,1.41-7.32ZM191.32,45.12c-.08-.29-.36-.48-.65-.41-.34.08-.69.14-1.06.18-.37.04-.7.06-1.01.06-.68,0-1.24-.08-1.64-.23-.38-.13-.66-.35-.91-.71-.24-.34-.45-.9-.58-1.65-.13-.75-.2-1.79-.2-3.08V11.23c0-.27-.19-.52-.46-.56-1.48-.26-2.92-.39-4.33-.39s-2.9.13-4.39.39c-.26.04-.46.29-.46.56v30.03c0,4.16.96,7.28,2.99,9.25,1.99,1.92,4.63,2.86,7.83,2.86h.02c.79,0,1.64-.04,2.56-.13.94-.09,1.75-.24,2.45-.47.18-.07.33-.22.37-.42.09-.37.13-.73.13-1.06v-.92c0-1.71-.23-3.46-.68-5.25ZM9.74,35.63V11.19c0-.27-.19-.5-.46-.54-1.46-.25-2.94-.38-4.44-.38s-2.96.12-4.38.38c-.27.04-.46.27-.46.54v41.26c0,.27.19.5.46.55,1.42.25,2.88.37,4.38.37s2.98-.12,4.44-.37c.27-.05.46-.28.46-.55v-16.53M9.74,32.52c.02.69.21,1.47.73,2.3l11.84,17.97c.09.15.24.26.4.28,1.62.25,3.16.37,4.63.37,1.59,0,3.23-.13,4.93-.37.18-.03.34-.14.41-.31.08-.16.08-.36-.01-.52l-12.4-19.1c-.13-.36-.22-.74-.22-1.17,0-.37.08-.77.2-1.11l11.08-19.42c.09-.15.09-.34.01-.51-.08-.17-.23-.28-.41-.31-1.5-.25-3.05-.38-4.64-.38-1.66,0-3.31.12-4.93.38-.18.03-.33.14-.41.29l-10.59,19.18c-.05.1-.57.94-.61,2.14M143.99,52.16l-9.54-15.62c-.13-.37-.23-.75-.23-1.17,0-.37.08-.76.2-1.13l8.21-13.29c.09-.16.09-.35.01-.51-.08-.17-.23-.28-.41-.31-1.5-.26-3.05-.38-4.63-.38s-3.31.13-4.93.38c-.18.03-.33.13-.41.29l-7.73,13.07c-.05.1-.57.94-.61,2.14V11.19c0-.27-.2-.5-.47-.54-1.46-.25-2.94-.38-4.44-.38s-2.96.12-4.38.38c-.27.04-.46.27-.46.54v41.26c0,.27.19.5.46.55,1.42.25,2.88.37,4.38.37s2.98-.12,4.44-.37c.27-.05.47-.28.47-.55v-16.54c.02.68.21,1.47.72,2.29l8.97,14.5c.09.15.23.26.4.28,1.63.25,3.17.38,4.63.38,1.58,0,3.23-.13,4.93-.38.18-.02.34-.13.42-.3.08-.16.08-.36-.01-.52Z"/></svg>