<svg width="72" height="24" viewBox="0 0 72 24" fill="none" xmlns="http://www.w3.org/2000/svg">
<g clip-path="url(#clip0_48_348)">
<path d="M18.6788 16.92C18.8475 17.5912 18.9375 18.2475 18.9375 18.8887V19.2337C18.9375 19.3575 18.9188 19.4925 18.885 19.635C18.87 19.7062 18.8138 19.7625 18.7463 19.7887C18.4875 19.875 18.18 19.9312 17.8275 19.965C17.4825 19.9987 17.1637 20.0137 16.8675 20.0137H16.8563C15.66 20.0137 14.6662 19.6612 13.92 18.9412C13.155 18.2062 12.7987 17.0325 12.7987 15.4725V4.21125C12.7987 4.11 12.87 4.01625 12.9713 4.00125C13.53 3.90375 14.0775 3.855 14.6175 3.855C15.1575 3.855 15.6863 3.90375 16.2413 4.00125C16.3425 4.01625 16.4137 4.11 16.4137 4.21125V14.7337C16.4137 15.2175 16.44 15.6075 16.4888 15.8887C16.5375 16.17 16.6162 16.3762 16.7062 16.5037C16.7962 16.6387 16.9013 16.7212 17.0438 16.7737C17.1938 16.8262 17.4037 16.86 17.6625 16.86C17.775 16.86 17.8988 16.8525 18.0375 16.8375C18.1725 16.8187 18.3038 16.7962 18.4313 16.77C18.54 16.7437 18.6488 16.815 18.675 16.9237L18.6788 16.92ZM29.235 12.03V19.2C29.235 19.2937 29.1788 19.3762 29.0925 19.4062C28.5525 19.5825 27.9037 19.7512 27.1425 19.9125C26.3662 20.0737 25.5 20.1562 24.5325 20.1562C23.7487 20.1562 23.025 20.085 22.365 19.935C21.7013 19.7887 21.12 19.5375 20.6362 19.185C20.145 18.8325 19.7663 18.3712 19.5 17.8125C19.2337 17.25 19.1025 16.5675 19.1025 15.78C19.1025 14.9925 19.2638 14.3025 19.6012 13.74C19.9275 13.1962 20.355 12.7575 20.8762 12.4275C21.39 12.105 21.96 11.8725 22.5863 11.7337C23.205 11.595 23.8238 11.5237 24.4463 11.5237C24.8288 11.5237 25.245 11.5425 25.6912 11.5762V11.5237C25.6912 11.1637 25.6312 10.89 25.5337 10.695C25.4287 10.485 25.29 10.3312 25.11 10.215C24.9263 10.0987 24.6938 10.0162 24.4012 9.9675C24.105 9.9225 23.7675 9.9 23.4 9.9C22.6088 9.9 21.7612 10.0612 20.8538 10.3875C20.76 10.4212 20.6513 10.3762 20.6063 10.2862C20.3888 9.8625 20.2237 9.46125 20.115 9.07875C20.0025 8.685 19.9462 8.2275 19.9462 7.7025C19.9462 7.6125 20.0025 7.52625 20.085 7.49625C20.7638 7.2525 21.4425 7.07625 22.1175 6.96375C22.7925 6.85125 23.4225 6.79125 24.0112 6.79125C25.6162 6.79125 26.9025 7.2 27.8363 8.03625C28.7813 8.8875 29.2388 10.2375 29.235 12.0225V12.03ZM25.6912 14.175C25.5638 14.1562 25.4287 14.1375 25.2825 14.1262C25.0763 14.1 24.8962 14.0887 24.7388 14.0887H24.735C24.0187 14.0887 23.4713 14.2275 23.0887 14.475C22.7213 14.7187 22.545 15.0712 22.5375 15.6412C22.5375 16.0275 22.6163 16.2937 22.7438 16.4662C22.89 16.6612 23.0588 16.8 23.2612 16.89C23.475 16.9837 23.7038 17.04 23.9475 17.0662C24.21 17.0887 24.4313 17.1 24.6225 17.1C24.84 17.1 25.0537 17.0775 25.2712 17.04C25.425 17.0137 25.5638 16.9912 25.6912 16.965V14.1787V14.175ZM41.01 7.0875C40.455 6.99 39.9038 6.94125 39.3638 6.94125C38.8237 6.94125 38.295 6.99 37.74 7.0875C37.6387 7.1025 37.5675 7.19625 37.5675 7.30125V16.8112C37.2375 16.89 36.8363 16.9275 36.3638 16.9275C35.97 16.9275 35.64 16.8787 35.3587 16.7812C35.0925 16.6875 34.8713 16.5375 34.6912 16.32C34.515 16.1062 34.3763 15.8062 34.2825 15.4087C34.1888 15.015 34.14 14.49 34.1438 13.8487V7.30125C34.1438 7.1925 34.0687 7.1025 33.9712 7.0875C33.4162 6.99 32.865 6.94125 32.325 6.94125C31.785 6.94125 31.2337 6.99 30.6787 7.0875C30.5775 7.1025 30.5062 7.19625 30.5062 7.30125V13.9425C30.5062 15.2812 30.6675 16.3687 31.0012 17.205C31.3312 18.03 31.7775 18.6712 32.355 19.1137C32.9175 19.5487 33.5737 19.83 34.3162 19.965C35.04 20.0962 35.7938 20.16 36.5775 20.16C37.455 20.16 38.295 20.0775 39.105 19.905C39.9038 19.74 40.5525 19.5675 41.0513 19.3837C41.1338 19.3537 41.19 19.2712 41.19 19.1775V7.305C41.19 7.19625 41.1187 7.10625 41.0175 7.09125L41.01 7.0875ZM65.0737 13.515C65.0737 14.4412 64.9575 15.3075 64.725 16.11C64.4888 16.9162 64.1287 17.625 63.6375 18.2287C63.1462 18.8362 62.5275 19.3125 61.7925 19.65C61.05 19.9912 60.1875 20.16 59.2125 20.16C58.2375 20.16 57.3787 19.995 56.64 19.65C55.9125 19.3125 55.3012 18.84 54.8175 18.2287C54.3375 17.625 53.9775 16.9162 53.7375 16.1137C53.4938 15.3112 53.3737 14.4412 53.3737 13.515C53.3737 12.5887 53.4938 11.7112 53.7375 10.8937C53.9775 10.0725 54.3375 9.35625 54.8175 8.7525C55.3012 8.145 55.9125 7.66875 56.64 7.32C57.375 6.97125 58.2337 6.79875 59.2125 6.79875C60.1912 6.79875 61.05 6.97125 61.7962 7.32C62.5312 7.66875 63.15 8.14125 63.6413 8.7525C64.1288 9.36 64.4925 10.0762 64.725 10.8937C64.9575 11.7112 65.0737 12.5887 65.0737 13.515ZM61.3913 13.515C61.3913 12.2962 61.2038 11.3775 60.8625 10.77C60.525 10.1812 60.0112 9.8925 59.2125 9.88875C58.4287 9.8925 57.9225 10.1812 57.585 10.77C57.2437 11.3775 57.0562 12.2962 57.0562 13.515C57.0562 14.7337 57.2437 15.6487 57.585 16.26C57.9263 16.8562 58.4287 17.1375 59.2125 17.145C60.015 17.1375 60.525 16.8525 60.8625 16.26C61.2038 15.6487 61.3913 14.7337 61.3913 13.515ZM71.745 16.92C71.715 16.8112 71.61 16.74 71.5013 16.7662C71.3737 16.7962 71.2425 16.8187 71.1038 16.8337C70.965 16.8487 70.8413 16.8562 70.725 16.8562C70.47 16.8562 70.26 16.8262 70.11 16.77C69.9675 16.7212 69.8625 16.6387 69.7688 16.5037C69.6787 16.3762 69.6 16.1662 69.5513 15.885C69.5025 15.6037 69.4762 15.2137 69.4762 14.73V4.21125C69.4762 4.11 69.405 4.01625 69.3037 4.00125C68.7487 3.90375 68.2087 3.855 67.68 3.855C67.1512 3.855 66.5925 3.90375 66.0338 4.00125C65.9362 4.01625 65.8613 4.11 65.8613 4.21125V15.4725C65.8613 17.0325 66.2212 18.2025 66.9825 18.9412C67.7287 19.6612 68.7188 20.0137 69.9187 20.0137H69.9263C70.2225 20.0137 70.5413 19.9987 70.8862 19.965C71.2387 19.9312 71.5425 19.875 71.805 19.7887C71.8725 19.7625 71.9287 19.7062 71.9438 19.6312C71.9775 19.4925 71.9925 19.3575 71.9925 19.2337V18.8887C71.9925 18.2475 71.9062 17.5912 71.7375 16.92H71.745ZM3.6525 13.3612V4.19625C3.6525 4.095 3.58125 4.00875 3.48 3.99375C2.9325 3.9 2.3775 3.85125 1.815 3.85125C1.2525 3.85125 0.705 3.89625 0.1725 3.99375C0.07125 4.00875 0 4.095 0 4.19625V19.6687C0 19.77 0.07125 19.8562 0.1725 19.875C0.705 19.9687 1.2525 20.0137 1.815 20.0137C2.3775 20.0137 2.9325 19.9687 3.48 19.875C3.58125 19.8562 3.6525 19.77 3.6525 19.6687V13.47M3.6525 12.195C3.66 12.4537 3.73125 12.7462 3.92625 13.0575L8.36625 19.7962C8.4 19.8525 8.45625 19.8937 8.51625 19.9012C9.12375 19.995 9.70125 20.04 10.2525 20.04C10.8488 20.04 11.4637 19.9912 12.1012 19.9012C12.1687 19.89 12.2288 19.8487 12.255 19.785C12.285 19.725 12.285 19.65 12.2512 19.59L7.60125 12.4275C7.5525 12.2925 7.51875 12.15 7.51875 11.9887C7.51875 11.85 7.54875 11.7 7.59375 11.5725L11.7487 4.29C11.7825 4.23375 11.7825 4.1625 11.7525 4.09875C11.7225 4.035 11.6663 3.99375 11.5988 3.9825C11.0363 3.88875 10.455 3.84 9.85875 3.84C9.23625 3.84 8.6175 3.885 8.01 3.9825C7.9425 3.99375 7.88625 4.035 7.85625 4.09125L3.885 11.2837C3.86625 11.3212 3.67125 11.6362 3.65625 12.0862M53.9963 19.56L50.4187 13.7025C50.37 13.5637 50.3325 13.4212 50.3325 13.2637C50.3325 13.125 50.3625 12.9787 50.4075 12.84L53.4863 7.85625C53.52 7.79625 53.52 7.725 53.49 7.665C53.46 7.60125 53.4037 7.56 53.3363 7.54875C52.7738 7.45125 52.1925 7.40625 51.6 7.40625C51.0075 7.40625 50.3587 7.455 49.7513 7.54875C49.6838 7.56 49.6275 7.5975 49.5975 7.6575L46.6987 12.5587C46.68 12.5962 46.485 12.9112 46.47 13.3612V4.19625C46.47 4.095 46.395 4.00875 46.2937 3.99375C45.7463 3.9 45.1912 3.85125 44.6287 3.85125C44.0662 3.85125 43.5187 3.89625 42.9862 3.99375C42.885 4.00875 42.8138 4.095 42.8138 4.19625V19.6687C42.8138 19.77 42.885 19.8562 42.9862 19.875C43.5187 19.9687 44.0662 20.0137 44.6287 20.0137C45.1912 20.0137 45.7463 19.9687 46.2937 19.875C46.395 19.8562 46.47 19.77 46.47 19.6687V13.4662C46.4775 13.7212 46.5487 14.0175 46.74 14.325L50.1038 19.7625C50.1375 19.8187 50.19 19.86 50.2537 19.8675C50.865 19.9612 51.4425 20.01 51.99 20.01C52.5825 20.01 53.2013 19.9612 53.8388 19.8675C53.9063 19.86 53.9663 19.8187 53.9963 19.755C54.0263 19.695 54.0262 19.62 53.9925 19.56H53.9963Z" fill="white"/>
</g>
<defs>
<clipPath id="clip0_48_348">
<rect width="72" height="24" fill="white"/>
</clipPath>
</defs>
</svg>
