<?xml version="1.0" encoding="UTF-8"?><svg id="a" xmlns="http://www.w3.org/2000/svg" viewBox="0 0 252 64"><defs><style>.c{fill:#f5b325;}.d{fill:none;}.e{fill:#d8282f;}</style></defs><path id="b" class="d" d="M4238.31,1072.49l564.08-3071.76H1519.01v-1086.39c0-1623.29,636.82-2247.61,2285.08-2247.61,511.97,0,924.03,12.46,1161.3,37.43v-2784.55c-449.53-124.89-1548.39-249.77-2185.21-249.77-3358.97,0-4907.36,1585.86-4907.36,5007.27v1323.62h-2072.82V1072.49h2072.82v6684.33c777.75,192.92,1590.97,296.01,2428.35,296.01,412.3,0,818.56-25.41,1217.83-73.62V1072.49h2719.3Z"/><path class="e" d="M2.22,60.87c0,.8.24,1.26,1.17,1.26.61,0,1.44-.08,2.17-.22l.26,1.8c-.83.19-1.59.29-2.43.29-2.12,0-3.06-1.14-3.06-2.8v-3.81c0-1.66.95-2.8,3.06-2.8.84,0,1.6.1,2.43.29l-.26,1.8c-.73-.14-1.56-.22-2.17-.22-.93,0-1.17.47-1.17,1.26v3.15ZM13.21,61.2c0,1.38-.88,2.8-3.25,2.8s-3.25-1.41-3.25-2.8v-3.81c0-1.38.88-2.8,3.25-2.8s3.25,1.41,3.25,2.8v3.81ZM11.32,57.57c0-.71-.42-1.15-1.36-1.15s-1.36.44-1.36,1.15v3.45c0,.71.42,1.15,1.36,1.15s1.36-.44,1.36-1.15v-3.45ZM16.47,57.86v6h-1.8v-9.13h2.32l2.76,6.29v-6.29h1.8v9.13h-2.33l-2.75-6ZM25.64,64c-.97,0-1.99-.23-2.71-.59l.32-1.59c.77.26,1.55.44,2.42.44.97,0,1.16-.21,1.16-.97,0-.82-.04-.92-1.41-1.25-2.03-.48-2.33-.92-2.33-2.89,0-1.82.59-2.55,2.9-2.55.73,0,1.61.08,2.55.3l-.19,1.73c-.96-.18-1.58-.26-2.33-.26-.84,0-1.03.16-1.03.84,0,.88.04.89,1.36,1.23,2.27.59,2.38,1.07,2.38,2.86s-.54,2.7-3.08,2.7ZM33.52,56.56v7.31h-1.89v-7.31h-2.26v-1.82h6.4v1.82h-2.26ZM39.75,61.03h-1.11v2.84h-1.89v-9.13h3.49c2.04,0,2.8.88,2.8,2.59v1.12c0,1.14-.38,1.91-1.22,2.29l2.03,3.13h-2.24l-1.85-2.84ZM41.15,57.52c0-.69-.24-.96-1.01-.96h-1.5v2.69h1.5c.81,0,1.01-.31,1.01-1v-.73ZM51.12,54.73v6.47c0,1.38-.79,2.8-3.16,2.8s-3.16-1.41-3.16-2.8v-6.47h1.89v6.28c0,.74.33,1.17,1.27,1.17s1.27-.42,1.27-1.17v-6.28h1.89ZM56.44,61.23v2.63h-1.89v-2.63l-2.61-6.5h1.98l1.58,4.24,1.58-4.24h1.98l-2.61,6.5ZM59.87,63.86v-9.13h5.28v1.82h-3.39v1.67h3.13v1.82h-3.13v1.99h3.39v1.82h-5.28ZM68.4,57.86v6h-1.8v-9.13h2.32l2.76,6.29v-6.29h1.8v9.13h-2.33l-2.75-6ZM78.37,63.86h-3.25v-9.13h3.25c2.07,0,2.84,1.14,2.84,2.37v4.39c0,1.22-.77,2.37-2.84,2.37ZM79.32,57.67c0-.71-.23-1.11-1.17-1.11h-1.13v5.48h1.13c.95,0,1.17-.4,1.17-1.11v-3.26ZM88.97,61.2c0,1.38-.88,2.8-3.25,2.8s-3.25-1.41-3.25-2.8v-3.81c0-1.38.88-2.8,3.25-2.8s3.25,1.41,3.25,2.8v3.81ZM87.08,57.57c0-.71-.42-1.15-1.36-1.15s-1.36.44-1.36,1.15v3.45c0,.71.42,1.15,1.36,1.15s1.36-.44,1.36-1.15v-3.45ZM94.77,60.87c0,.8.24,1.26,1.17,1.26.61,0,1.44-.08,2.17-.22l.26,1.8c-.83.19-1.59.29-2.43.29-2.12,0-3.06-1.14-3.06-2.8v-3.81c0-1.66.95-2.8,3.06-2.8.84,0,1.6.1,2.43.29l-.26,1.8c-.73-.14-1.56-.22-2.17-.22-.93,0-1.17.47-1.17,1.26v3.15ZM105.76,61.2c0,1.38-.88,2.8-3.25,2.8s-3.25-1.41-3.25-2.8v-3.81c0-1.38.88-2.8,3.25-2.8s3.25,1.41,3.25,2.8v3.81ZM103.87,57.57c0-.71-.42-1.15-1.36-1.15s-1.36.44-1.36,1.15v3.45c0,.71.42,1.15,1.36,1.15s1.36-.44,1.36-1.15v-3.45ZM109.02,57.86v6h-1.8v-9.13h2.32l2.76,6.29v-6.29h1.8v9.13h-2.33l-2.75-6ZM115.73,63.86v-9.13h5.33v1.82h-3.44v1.95h3.18v1.82h-3.18v3.54h-1.89ZM122.33,63.86v-9.13h1.89v9.13h-1.89ZM132.88,63.86h-1.97l-.45-1.78h-2.81l-.45,1.78h-1.97l2.56-9.13h2.52l2.57,9.13ZM128.08,60.37h1.93l-.96-3.82-.97,3.82ZM135.63,57.86v6h-1.8v-9.13h2.32l2.76,6.29v-6.29h1.8v9.13h-2.33l-2.75-6ZM144.31,62.18h3.72v1.69h-5.87v-1.67l3.69-5.77h-3.53v-1.69h5.65v1.69l-3.66,5.76ZM156.63,63.86h-1.97l-.45-1.78h-2.81l-.45,1.78h-1.97l2.56-9.13h2.52l2.57,9.13ZM151.82,60.37h1.93l-.96-3.82-.97,3.82Z"/><path class="e" d="M214.83,0l36.84,63.86h-73.69L214.83,0ZM245.29,37.96c-.57.31-1.01.74-1.33,1.31-.32.57-.48,1.16-.48,1.78s.16,1.2.47,1.77c.31.56.75,1,1.32,1.31.56.31,1.15.47,1.77.47s1.2-.16,1.77-.47c.56-.31,1-.75,1.31-1.31.31-.57.47-1.15.47-1.77s-.16-1.21-.48-1.78c-.32-.57-.76-1.01-1.33-1.31-.57-.31-1.15-.46-1.75-.46s-1.18.15-1.75.46ZM248.49,38.48c.47.26.84.62,1.11,1.1.26.48.4.97.4,1.48s-.13,1-.39,1.47c-.26.47-.63.83-1.1,1.1-.47.26-.96.39-1.47.39s-1-.13-1.47-.39c-.47-.26-.84-.63-1.1-1.1-.26-.47-.39-.96-.39-1.47s.13-1.01.4-1.48c.27-.48.64-.84,1.11-1.1.47-.26.96-.38,1.46-.38s.98.13,1.45.38ZM246.1,43.02v-1.62h.36c.22,0,.38.04.49.13.16.12.38.41.65.89l.34.6h.75l-.47-.75c-.22-.36-.41-.61-.56-.76-.08-.08-.19-.15-.32-.2.33-.03.59-.14.79-.35.2-.21.3-.45.3-.73,0-.2-.06-.38-.18-.56-.12-.17-.28-.3-.48-.37-.2-.07-.52-.11-.97-.11h-1.31v3.82h.62ZM246.1,39.72h.7c.3,0,.51.02.62.07.11.04.2.11.26.2.06.09.1.19.1.3,0,.18-.07.32-.2.42-.13.11-.37.16-.73.16h-.75v-1.15Z"/><path class="c" d="M209.34,44.34c.35,0,.59.28.52.63l-2.1,11.52c-.06.35-.4.63-.75.63h-2.5c-.35,0-.58-.28-.52-.63l2.1-11.52c.06-.35.4-.63.75-.63h2.5M210.84,39.59l.39-2.18c.06-.35-.17-.63-.52-.63h-2.51c-.35,0-.68.28-.75.63l-.4,2.18c-.06.35.17.63.52.63h2.51c.35,0,.68-.28.75-.63M233.62,53.07c.04-1.17-1-1.5-2.49-1.55-1.49-.05-3.34.33-3.34,1.53,0,.88,1.02,1.77,2.89,1.68,1.58-.08,2.91-.79,2.95-1.66ZM235.94,57.16c-.47-.12-1.41-.6-1.86-.6-.51,0-2.08.79-4.24.79-2.44,0-2.85-1.16-3.57-1.14-.35.01-2.16,1.16-3.68,1.14-2.53-.04-3.79-5.35-6.26-5.35-.68,0-.99.23-1.2.77h0s-.7,3.72-.7,3.72c-.06.35-.4.63-.75.63h-2.51c-.35,0-.58-.28-.52-.63l6.01-32.96c.06-.35.4-.63.75-.63h2.51c.35,0,.58.28.52.63,0,0-4.35,24.06-4.44,24.47-.27,1.26,3.54.48,5.01-2.89.33-.69.71-.76,1-.76.3,0,1.77,0,2.16,0,.55,0,.5.72.43,1-.75,3-4.3,4.84-4.28,5.21.02.38,2.15,2.51,2.56,3.14.41.63,2,.28,2-.65,0-5.39,8.18-3.78,8.79-3.76.68.03.64-1.55.61-1.83-.03-.28-.62-.59-2.24-.59h-4.54c-.39,0-.67-.26-.62-.57l.3-1.39c.05-.31.4-.56.79-.56,0,0,6.58-.08,7.32.21,2.02.8,2.1,2.43,2.02,3.66-.08,1.24-.87,5.09-.87,5.32,0,.66,1,.5,1.42.63.42.13.38.58.35.76,0,0-.12,1.16-.3,1.59-.17.43-.82.95-1.97.64ZM191.38,57.39c.18-.09.3-.2.4-.24.08-.03.24-.02.44.02h.03c1.73.5,8.02,2.18,9.57-5.14,0,0,4.27-23.4,4.28-23.45.03-.27.52-3.25,4.66-1.85,1.39.47,1.52-.23,1.55-.35l.63-2.74c.02-.78-.6-.6-1.79-.83-.91-.17-1.18.32-1.39.42-.21.1-.94-.08-2.02-.13-.63-.03-4.41.45-5.17,4.14l-4.16,22.48c-.19.67-.12,7.03-7.42,3.44-1.24-.61-1.71-.29-1.82.35-.08.45-.42,2.76-.48,3.23-.02.19.12.5.48.55.38.06.99.15,1.3.2.43.06.7.01.89-.09l.04-.02"/></svg>